<svg xmlns="http://www.w3.org/2000/svg" viewBox="0 0 32 32" role="img" aria-label="RootCause QR Inspector">
  <defs><linearGradient id="g" x1="5" y1="3" x2="27" y2="30" gradientUnits="userSpaceOnUse"><stop stop-color="#087a6d"/><stop offset="1" stop-color="#04100e"/></linearGradient></defs>
  <rect width="32" height="32" rx="7" fill="url(#g)"/>
  <path d="M16 5 23 7.7v7.7c0 5.4-2.8 8.9-7 11.6-4.2-2.7-7-6.2-7-11.6V7.7L16 5Z" fill="#ecfffa"/>
  <g fill="#04100e"><rect x="12" y="10" width="3" height="3" rx=".6"/><rect x="17" y="10" width="3" height="3" rx=".6"/><rect x="12" y="15" width="3" height="3" rx=".6"/><rect x="17" y="15" width="3" height="3" rx=".6"/><rect x="14.5" y="17.5" width="2.5" height="2.5" rx=".5"/></g>
  <rect x="10.5" y="18.5" width="11" height="1.5" rx=".75" fill="#43e0c4"/>
  <circle cx="16" cy="11.5" r=".8" fill="#ffc56e"/>
</svg>
